<?xml version="1.0" encoding="utf-8"?>
<!-- Generator: Adobe Illustrator 16.0.3, SVG Export Plug-In . SVG Version: 6.00 Build 0)  -->
<!DOCTYPE svg PUBLIC "-//W3C//DTD SVG 1.1//EN" "http://www.w3.org/Graphics/SVG/1.1/DTD/svg11.dtd">
<svg version="1.1" id="Layer_1" xmlns="http://www.w3.org/2000/svg" xmlns:xlink="http://www.w3.org/1999/xlink" x="0px" y="0px"
	 width="170.666px" height="45.704px" viewBox="0 0 170.666 45.704" enable-background="new 0 0 170.666 45.704"
	 xml:space="preserve">
<g>
	<path fill="#EEEEEF" d="M21.77,37.487c-0.338-0.839-0.819-1.949-1.444-3.329c-0.626-1.38-1.327-2.885-2.104-4.517
		c-0.777-1.632-1.571-3.313-2.382-5.047c-0.812-1.733-1.589-3.356-2.332-4.87c-0.744-1.514-1.403-2.843-1.977-3.987
		c-0.575-1.143-0.998-1.95-1.268-2.422c-0.437,4.206-0.782,8.773-1.034,13.702C8.977,31.946,8.75,37.118,8.548,42.536H5.167
		c0.303-6.36,0.647-12.449,1.035-18.27c0.386-5.82,0.865-11.388,1.438-16.704h3.028c1.011,1.683,2.089,3.625,3.236,5.829
		c1.146,2.204,2.284,4.492,3.413,6.863c1.129,2.372,2.226,4.71,3.288,7.014c1.061,2.306,1.997,4.384,2.806,6.233
		c0.81-1.85,1.744-3.928,2.807-6.233c1.061-2.304,2.157-4.642,3.287-7.014c1.129-2.372,2.267-4.66,3.414-6.863
		c1.146-2.203,2.224-4.146,3.236-5.829h2.877c0.571,5.316,1.051,10.884,1.438,16.704c0.386,5.82,0.731,11.909,1.034,18.27h-3.482
		c-0.202-5.418-0.429-10.59-0.682-15.519c-0.252-4.929-0.598-9.496-1.034-13.702c-0.27,0.472-0.69,1.279-1.262,2.422
		c-0.572,1.145-1.229,2.474-1.968,3.987c-0.741,1.514-1.515,3.137-2.322,4.87c-0.808,1.733-1.599,3.415-2.372,5.047
		c-0.775,1.632-1.473,3.137-2.095,4.517c-0.623,1.38-1.103,2.49-1.438,3.329H21.77z"/>
	<path fill="#EEEEEF" d="M47.911,29.464c0-2.287,0.328-4.281,0.984-5.98c0.656-1.699,1.515-3.121,2.574-4.265
		c1.06-1.143,2.271-1.993,3.633-2.548c1.363-0.555,2.768-0.833,4.215-0.833c3.195,0,5.744,1.043,7.645,3.129
		c1.9,2.086,2.851,5.299,2.851,9.639c0,0.27-0.008,0.538-0.025,0.808c-0.017,0.27-0.042,0.522-0.075,0.757H51.394
		c0.102,3.197,0.892,5.653,2.372,7.369s3.835,2.572,7.065,2.572c1.783,0,3.196-0.167,4.239-0.504
		c1.042-0.336,1.799-0.622,2.271-0.857l0.605,2.825c-0.471,0.27-1.354,0.59-2.649,0.96c-1.296,0.369-2.818,0.555-4.567,0.555
		c-2.289,0-4.239-0.336-5.855-1.011c-1.615-0.671-2.944-1.614-3.987-2.824c-1.043-1.212-1.8-2.649-2.271-4.315
		C48.146,33.274,47.911,31.45,47.911,29.464z M66.433,27.395c-0.068-2.726-0.706-4.845-1.917-6.358
		c-1.211-1.514-2.927-2.271-5.148-2.271c-1.178,0-2.229,0.235-3.154,0.706c-0.925,0.471-1.733,1.103-2.422,1.893
		c-0.69,0.791-1.228,1.708-1.615,2.75c-0.388,1.043-0.614,2.137-0.681,3.28H66.433z"/>
	<path fill="#EEEEEF" d="M80.209,16.444h10.396v2.775H80.209v13.879c0,1.481,0.126,2.683,0.378,3.608
		c0.252,0.926,0.614,1.64,1.085,2.146c0.471,0.503,1.042,0.841,1.716,1.009c0.672,0.167,1.413,0.251,2.22,0.251
		c1.379,0,2.489-0.159,3.331-0.478c0.84-0.32,1.496-0.614,1.968-0.884l0.808,2.726c-0.472,0.302-1.295,0.646-2.473,1.033
		c-1.179,0.387-2.457,0.581-3.836,0.581c-1.615,0-2.969-0.211-4.063-0.632c-1.094-0.419-1.969-1.06-2.625-1.917
		c-0.655-0.858-1.119-1.926-1.388-3.205c-0.27-1.278-0.403-2.791-0.403-4.541V8.772l3.28-0.605V16.444z"/>
	<path fill="#EEEEEF" d="M105.543,15.939c1.076,0,2.095,0.084,3.053,0.252c0.96,0.168,1.624,0.336,1.994,0.505l-0.656,2.826
		c-0.27-0.134-0.816-0.278-1.641-0.429c-0.824-0.152-1.909-0.227-3.255-0.227c-1.413,0-2.548,0.101-3.406,0.302
		s-1.422,0.371-1.69,0.504v22.862h-3.28v-24.88c0.841-0.371,2.001-0.749,3.482-1.136C101.623,16.133,103.424,15.939,105.543,15.939z
		"/>
	<path fill="#EEEEEF" d="M119.572,8.571c0,0.775-0.235,1.389-0.707,1.842c-0.471,0.455-1.042,0.682-1.716,0.682
		c-0.673,0-1.245-0.227-1.715-0.682c-0.472-0.453-0.707-1.067-0.707-1.842c0-0.773,0.235-1.388,0.707-1.842
		c0.47-0.455,1.042-0.682,1.715-0.682c0.674,0,1.245,0.227,1.716,0.682C119.337,7.183,119.572,7.798,119.572,8.571z M118.815,42.536
		h-3.28V16.444h3.28V42.536z"/>
	<path fill="#EEEEEF" d="M138.296,43.09c-2.02,0-3.803-0.32-5.35-0.958c-1.549-0.641-2.835-1.558-3.861-2.751
		c-1.026-1.195-1.809-2.624-2.347-4.291c-0.538-1.664-0.808-3.507-0.808-5.525c0-2.052,0.278-3.919,0.833-5.602
		c0.556-1.682,1.354-3.129,2.397-4.34c1.043-1.211,2.304-2.146,3.785-2.802c1.479-0.656,3.146-0.984,4.996-0.984
		c1.412,0,2.732,0.119,3.962,0.354c1.228,0.235,2.177,0.539,2.851,0.909l-0.858,2.826c-0.673-0.336-1.429-0.606-2.27-0.808
		s-1.969-0.303-3.382-0.303c-2.895,0-5.089,0.934-6.586,2.801c-1.497,1.868-2.246,4.517-2.246,7.949c0,1.548,0.168,2.97,0.506,4.265
		c0.336,1.295,0.883,2.405,1.639,3.331c0.758,0.926,1.732,1.647,2.928,2.168c1.193,0.524,2.648,0.783,4.366,0.783
		c1.412,0,2.598-0.159,3.558-0.478c0.958-0.32,1.655-0.598,2.095-0.835l0.705,2.827c-0.605,0.336-1.556,0.666-2.853,0.983
		C141.063,42.93,139.708,43.09,138.296,43.09z"/>
	<path fill="#EEEEEF" d="M156.059,40.213c1.884,0,3.439-0.312,4.669-0.934c1.227-0.622,1.842-1.673,1.842-3.154
		c0-0.707-0.109-1.313-0.328-1.817c-0.221-0.505-0.581-0.958-1.086-1.362c-0.504-0.403-1.169-0.79-1.993-1.16
		c-0.825-0.369-1.842-0.808-3.052-1.313c-0.977-0.403-1.901-0.815-2.775-1.236c-0.877-0.421-1.65-0.908-2.323-1.463
		c-0.673-0.556-1.21-1.22-1.613-1.994c-0.404-0.773-0.607-1.716-0.607-2.826c0-2.12,0.8-3.836,2.398-5.148
		c1.597-1.313,3.793-1.968,6.585-1.968c1.782,0,3.255,0.152,4.416,0.454c1.161,0.303,1.978,0.573,2.448,0.808l-0.758,2.927
		c-0.403-0.202-1.084-0.471-2.043-0.808c-0.96-0.336-2.364-0.504-4.214-0.504c-0.741,0-1.438,0.076-2.095,0.228
		c-0.656,0.151-1.237,0.388-1.742,0.708c-0.505,0.32-0.908,0.725-1.21,1.213c-0.303,0.489-0.455,1.087-0.455,1.795
		c0,0.708,0.135,1.315,0.404,1.82c0.27,0.507,0.663,0.953,1.186,1.341c0.522,0.389,1.161,0.749,1.917,1.084
		c0.758,0.335,1.624,0.703,2.601,1.105c1.01,0.402,1.976,0.813,2.901,1.23c0.924,0.419,1.74,0.923,2.448,1.511
		c0.705,0.589,1.278,1.296,1.716,2.12c0.436,0.825,0.656,1.859,0.656,3.104c0,2.354-0.884,4.137-2.65,5.349
		s-4.182,1.815-7.242,1.815c-2.288,0-4.036-0.192-5.248-0.579s-2.02-0.681-2.423-0.884l0.859-2.978
		c0.1,0.068,0.317,0.178,0.656,0.328c0.336,0.151,0.788,0.32,1.361,0.506c0.571,0.185,1.254,0.345,2.044,0.479
		S155.017,40.213,156.059,40.213z"/>
</g>
</svg>
